name GIL01_free4.mot
datacolumns 153
datarows 4
range 0.66666669 0.69166666
endheader

                time	           pelvis_tx	           pelvis_ty	           pelvis_tz	         pelvis_tilt	         pelvis_list	     pelvis_rotation	       hip_flexion_r	     hip_adduction_r	      hip_rotation_r	        knee_angle_r	       ankle_angle_r	    subtalar_angle_r	         mtp_angle_r	       hip_flexion_l	     hip_adduction_l	      hip_rotation_l	        knee_angle_l	       ankle_angle_l	    subtalar_angle_l	         mtp_angle_l	    lumbar_extension	      lumbar_bending	     lumbar_rotation	     ground_force_vx	     ground_force_vy	     ground_force_vz	     ground_force_px	     ground_force_py	     ground_force_pz	     ground_force_vx	     ground_force_vy	     ground_force_vz	     ground_force_px	     ground_force_py	     ground_force_pz	     ground_torque_x	     ground_torque_y	     ground_torque_z	     ground_torque_x	     ground_torque_y	     ground_torque_z	    ground_marker_px	    ground_marker_py	    ground_marker_pz	    ground_marker_px	    ground_marker_py	    ground_marker_pz	    ground_marker_px	    ground_marker_py	    ground_marker_pz	    ground_marker_px	    ground_marker_py	    ground_marker_pz	    ground_marker_px	    ground_marker_py	    ground_marker_pz	    ground_marker_px	    ground_marker_py	    ground_marker_pz	    ground_marker_px	    ground_marker_py	    ground_marker_pz	    ground_marker_px	    ground_marker_py	    ground_marker_pz	    ground_marker_px	    ground_marker_py	    ground_marker_pz	    ground_marker_px	    ground_marker_py	    ground_marker_pz	    ground_marker_px	    ground_marker_py	    ground_marker_pz	    ground_marker_px	    ground_marker_py	    ground_marker_pz	    ground_marker_px	    ground_marker_py	    ground_marker_pz	    ground_marker_px	    ground_marker_py	    ground_marker_pz	    ground_marker_px	    ground_marker_py	    ground_marker_pz	    ground_marker_px	    ground_marker_py	    ground_marker_pz	    ground_marker_px	    ground_marker_py	    ground_marker_pz	    ground_marker_px	    ground_marker_py	    ground_marker_pz	    ground_marker_px	    ground_marker_py	    ground_marker_pz	    ground_marker_px	    ground_marker_py	    ground_marker_pz	    ground_marker_px	    ground_marker_py	    ground_marker_pz	    ground_marker_px	    ground_marker_py	    ground_marker_pz	    ground_marker_px	    ground_marker_py	    ground_marker_pz	    ground_marker_px	    ground_marker_py	    ground_marker_pz	    ground_marker_px	    ground_marker_py	    ground_marker_pz	    ground_marker_px	    ground_marker_py	    ground_marker_pz	    ground_marker_px	    ground_marker_py	    ground_marker_pz	    ground_marker_px	    ground_marker_py	    ground_marker_pz	    ground_marker_px	    ground_marker_py	    ground_marker_pz	    ground_marker_px	    ground_marker_py	    ground_marker_pz	    ground_marker_px	    ground_marker_py	    ground_marker_pz	    ground_marker_px	    ground_marker_py	    ground_marker_pz	    ground_marker_px	    ground_marker_py	    ground_marker_pz	    ground_marker_px	    ground_marker_py	    ground_marker_pz	    ground_marker_px	    ground_marker_py	    ground_marker_pz	    ground_marker_px	    ground_marker_py	    ground_marker_pz	    ground_marker_px	    ground_marker_py	    ground_marker_pz	
          0.66666669	          0.54448265	          0.77846086	         -0.29672432	         -2.00327301	         -3.89072061	          2.86615968	         27.86586761	          3.60049915	          1.00725818	        -13.04416180	        -11.02317238	          0.00000000	          0.00000000	        -19.01811600	         -4.40307474	        -12.04274178	        -13.55191708	          6.56363487	          0.00000000	          0.00000000	         -6.54238701	          8.39240646	         -9.80871964	        -49.37244174	        255.17105163	        -12.20884192	          0.67809857	          0.00000000	         -0.22668205	         63.12896199	        207.90450924	          7.72727093	          0.21599803	          0.00000000	         -0.35924579	          0.00000000	         -0.29897388	          0.00000000	          0.00000000	         -0.09153575	          0.00000000	          0.49277699	          0.71796465	         -0.28819501	          0.47848096	          0.71345931	         -0.22353433	          0.47002146	          0.70646715	         -0.35338685	          0.62786639	          0.40051663	         -0.23828974	          0.35414246	          0.40792143	         -0.35443592	          0.70290911	          0.06773199	         -0.23527162	          0.14349267	          0.11092664	         -0.35962343	          0.54448265	          0.77846086	         -0.29672432	          0.55103213	          0.78387427	         -0.19619069	          0.53793317	          0.77304751	         -0.39725795	          0.38844138	          0.82033533	         -0.25438955	          0.38442671	          0.81751078	         -0.30919439	          0.63380075	          0.40077129	         -0.18361142	          0.34156525	          0.41298872	         -0.40722215	          0.61830592	          0.39796358	         -0.28214338	          0.35963443	          0.38507888	         -0.30557579	          0.70053136	          0.06753522	         -0.19784759	          0.13549820	          0.11721826	         -0.39519736	          0.70655727	          0.06858135	         -0.25975493	          0.14438906	          0.11349552	         -0.32903698	          0.40882677	          1.18400848	         -0.30270085	          0.51063001	          1.12610459	         -0.24627051	          0.52026445	          1.13111305	         -0.32238585	          0.50106156	          1.12721360	         -0.28764999	          0.53078425	          1.04551315	         -0.28683436	          0.68199068	          0.54805017	         -0.13771592	          0.53610784	          0.47865644	         -0.39814466	          0.58497137	          0.56871247	         -0.15662211	          0.48212802	          0.55877548	         -0.41299680	          0.61757976	          0.49217296	         -0.17486262	          0.44319415	          0.48164764	         -0.40671277	          0.67426997	          0.17382218	         -0.12132310	          0.21699129	          0.21529339	         -0.46951750	          0.67654091	          0.13928805	         -0.19633181	          0.18210217	          0.18938543	         -0.39754197	          0.80255193	          0.04293410	         -0.21477704	          0.21372329	          0.03932703	         -0.36816612	
          0.67500001	          0.55514967	          0.77917397	         -0.29468298	         -1.82958603	         -4.14678383	          2.51778674	         27.53343582	          4.27747917	          2.86488628	        -14.39714813	        -10.30745506	          0.00000000	          0.00000000	        -18.88992310	         -4.93314314	        -11.90954971	        -15.24129486	          4.71110487	          0.00000000	          0.00000000	         -6.08714390	          8.75871563	         -9.99057961	        -56.78860718	        281.09968536	        -16.95607887	          0.68502881	          0.00000000	         -0.22608360	         57.45022368	        173.49799270	          6.47645017	          0.21740889	          0.00000000	         -0.35857916	          0.00000000	         -0.27131738	          0.00000000	          0.00000000	         -0.00853024	          0.00000000	          0.50304651	          0.71827710	         -0.28534690	          0.48902008	          0.71436840	         -0.22143470	          0.48121101	          0.70659548	         -0.35128355	          0.63743275	          0.40089419	         -0.23758532	          0.36685240	          0.40720683	         -0.35414401	          0.70360142	          0.06702331	         -0.23554824	          0.14922932	          0.11531538	         -0.36047900	          0.55514967	          0.77917397	         -0.29468298	          0.56119078	          0.78518713	         -0.19423236	          0.54910862	          0.77316087	         -0.39513358	          0.39812195	          0.82075042	         -0.25371528	          0.39503184	          0.81768709	         -0.30863219	          0.64496207	          0.40165219	         -0.18310842	          0.35478580	          0.41232142	         -0.40704474	          0.63133210	          0.39940527	         -0.28062448	          0.37272641	          0.38407996	         -0.30419618	          0.70238400	          0.06701071	         -0.19806802	          0.14143498	          0.12189843	         -0.39604458	          0.70785254	          0.06773631	         -0.26019314	          0.15039979	          0.11780728	         -0.33000261	          0.41817772	          1.18424833	         -0.30182186	          0.52118778	          1.12680984	         -0.24475852	          0.53141743	          1.13197422	         -0.32087857	          0.51195973	          1.12785578	         -0.28626099	          0.54248816	          1.04645514	         -0.28524894	          0.69494033	          0.55056477	         -0.13938044	          0.54882389	          0.47885808	         -0.39585161	          0.59815472	          0.57096577	         -0.15591921	          0.49450007	          0.55870634	         -0.41103151	          0.63153756	          0.49440682	         -0.17420803	          0.45607370	          0.48119488	         -0.40491763	          0.68141246	          0.17372984	         -0.12116754	          0.22522710	          0.21808855	         -0.47021601	          0.68110192	          0.13887368	         -0.19631848	          0.18974863	          0.19286911	         -0.39821747	          0.80391300	          0.04069039	         -0.21513745	          0.21564573	          0.03962894	         -0.36807176	
          0.68333334	          0.56568694	          0.77993500	         -0.29262722	         -1.67504978	         -4.31820440	          2.24176788	         27.14215469	          4.85368061	          4.53246546	        -15.62605762	         -9.33922863	          0.00000000	          0.00000000	        -18.55803680	         -5.39476538	        -11.65964890	        -17.13439751	          2.53924775	          0.00000000	          0.00000000	         -5.64181376	          9.07850647	        -10.32891464	        -63.99710585	        306.54634872	        -20.97022165	          0.69153827	          0.00000000	         -0.22583713	         49.59410358	        137.23984864	          5.15207204	          0.21902943	          0.00000000	         -0.35806229	          0.00000000	         -0.29734204	          0.00000000	          0.00000000	          0.04144206	          0.00000000	          0.51328087	          0.71873009	         -0.28294897	          0.49946526	          0.71522391	         -0.21937853	          0.49219432	          0.70690233	         -0.34922463	          0.64646995	          0.40112051	         -0.23696722	          0.38034955	          0.40634954	         -0.35396239	          0.70394695	          0.06651127	         -0.23583041	          0.15589611	          0.11982786	         -0.36119390	          0.56568694	          0.77993500	         -0.29262722	          0.57130682	          0.78636700	         -0.19226599	          0.56006706	          0.77350307	         -0.39298844	          0.40787458	          0.82116860	         -0.25282937	          0.40547797	          0.81799364	         -0.30780080	          0.65542841	          0.40227517	         -0.18271399	          0.36879623	          0.41148457	         -0.40697566	          0.64512366	          0.40109909	         -0.27993777	          0.38693124	          0.38249722	         -0.30277634	          0.70383424	          0.06661931	         -0.19833073	          0.14825477	          0.12671094	         -0.39673591	          0.70890796	          0.06709762	         -0.26055622	          0.15732482	          0.12226976	         -0.33083084	          0.42759952	          1.18464458	         -0.30096826	          0.53175431	          1.12755251	         -0.24320543	          0.54270589	          1.13291609	         -0.31929794	          0.52293694	          1.12857091	         -0.28483886	          0.55420130	          1.04745293	         -0.28362137	          0.70733559	          0.55238450	         -0.14086698	          0.56200981	          0.47934908	         -0.39359286	          0.61039621	          0.57251507	         -0.15529323	          0.50701219	          0.55859601	         -0.40896526	          0.64510047	          0.49638203	         -0.17387941	          0.46957120	          0.48074353	         -0.40307415	          0.68796736	          0.17351404	         -0.12114820	          0.23416157	          0.22094308	         -0.47089398	          0.68489224	          0.13866648	         -0.19630347	          0.19832148	          0.19643827	         -0.39875227	          0.80497599	          0.03913331	         -0.21530053	          0.21782947	          0.03990246	         -0.36791936	
          0.69166666	          0.57606089	          0.78072059	         -0.29060185	         -1.54547596	         -4.41953945	          2.04463339	         26.72423172	          5.33657837	          5.80600119	        -16.74432182	         -8.21683502	          0.00000000	          0.00000000	        -18.01264191	         -5.80710936	        -11.31157398	        -19.20973969	          0.00262548	          0.00000000	          0.00000000	         -5.51280880	          9.66261864	        -12.20365429	        -69.61099789	        329.68224967	        -23.00569254	          0.69703497	          0.00000000	         -0.22588277	         39.52175410	        100.89269235	          3.81056839	          0.22112993	          0.00000000	         -0.35773041	          0.00000000	         -0.47293945	          0.00000000	          0.00000000	          0.05742543	          0.00000000	          0.52366078	          0.71939588	         -0.28125566	          0.50978875	          0.71602732	         -0.21738304	          0.50291818	          0.70735985	         -0.34722832	          0.65505153	          0.40131494	         -0.23646516	          0.39458176	          0.40533090	         -0.35392505	          0.70414758	          0.06618540	         -0.23610221	          0.16358508	          0.12438644	         -0.36173537	          0.57606089	          0.78072059	         -0.29060185	          0.58136517	          0.78741217	         -0.19035688	          0.57075655	          0.77402902	         -0.39084685	          0.41785115	          0.82158667	         -0.25174201	          0.41575843	          0.81840163	         -0.30667323	          0.66511506	          0.40268248	         -0.18241097	          0.38352385	          0.41047508	         -0.40704295	          0.65037203	          0.40029901	         -0.27828357	          0.40140796	          0.38073969	         -0.30205697	          0.70489913	          0.06633610	         -0.19861004	          0.15603369	          0.13158220	         -0.39723465	          0.70962131	          0.06668337	         -0.26089454	          0.16531660	          0.12672882	         -0.33149555	          0.43708012	          1.18523061	         -0.30010983	          0.53982288	          1.12824607	         -0.24204452	          0.55353159	          1.13390386	         -0.31771404	          0.53252596	          1.12940824	         -0.28398919	          0.56382984	          1.04832244	         -0.28192991	          0.71887815	          0.55339873	         -0.14185901	          0.57562262	          0.48009819	         -0.39147070	          0.62167388	          0.57343084	         -0.15467404	          0.51995081	          0.55860490	         -0.40700993	          0.65453315	          0.49675834	         -0.17324865	          0.48347533	          0.48027769	         -0.40155643	          0.69351655	          0.17323691	         -0.12125206	          0.24380615	          0.22384097	         -0.47151679	          0.68808216	          0.13873966	         -0.19637451	          0.20787551	          0.20004578	         -0.39918286	          0.80575407	          0.03813624	         -0.21535124	          0.22028105	          0.04014578	         -0.36767977	
